<svg width="400" height="600" viewBox="0 0 400 600" fill="none" xmlns="http://www.w3.org/2000/svg">
<rect width="400" height="600" fill="white"/>
<path d="M170.196 32.968H164.052V40H160.764V23.2H164.052V30.04H170.196V23.2H173.484V40H170.196V32.968ZM176.253 28.696C176.893 28.408 177.653 28.184 178.533 28.024C179.413 27.848 180.333 27.76 181.293 27.76C182.125 27.76 182.821 27.864 183.381 28.072C183.941 28.264 184.381 28.544 184.701 28.912C185.037 29.28 185.269 29.72 185.397 30.232C185.541 30.744 185.613 31.32 185.613 31.96C185.613 32.664 185.589 33.376 185.541 34.096C185.493 34.8 185.461 35.496 185.445 36.184C185.445 36.872 185.469 37.544 185.517 38.2C185.565 38.84 185.685 39.448 185.877 40.024H183.333L182.829 38.368H182.709C182.389 38.864 181.941 39.296 181.365 39.664C180.805 40.016 180.077 40.192 179.181 40.192C178.621 40.192 178.117 40.112 177.669 39.952C177.221 39.776 176.837 39.536 176.517 39.232C176.197 38.912 175.949 38.544 175.773 38.128C175.597 37.696 175.509 37.216 175.509 36.688C175.509 35.952 175.669 35.336 175.989 34.84C176.325 34.328 176.797 33.92 177.405 33.616C178.029 33.296 178.765 33.08 179.613 32.968C180.477 32.84 181.437 32.8 182.493 32.848C182.605 31.952 182.541 31.312 182.301 30.928C182.061 30.528 181.525 30.328 180.693 30.328C180.069 30.328 179.405 30.392 178.701 30.52C178.013 30.648 177.445 30.816 176.997 31.024L176.253 28.696ZM180.213 37.624C180.837 37.624 181.333 37.488 181.701 37.216C182.069 36.928 182.341 36.624 182.517 36.304V34.744C182.021 34.696 181.541 34.688 181.077 34.72C180.629 34.752 180.229 34.824 179.877 34.936C179.525 35.048 179.245 35.208 179.037 35.416C178.829 35.624 178.725 35.888 178.725 36.208C178.725 36.656 178.853 37.008 179.109 37.264C179.381 37.504 179.749 37.624 180.213 37.624ZM188.231 28.024C188.791 27.976 189.463 27.928 190.247 27.88C191.047 27.832 191.903 27.808 192.815 27.808C194.575 27.808 195.823 28.064 196.559 28.576C197.311 29.072 197.687 29.824 197.687 30.832C197.687 31.392 197.527 31.936 197.207 32.464C196.887 32.992 196.383 33.376 195.695 33.616V33.712C196.559 33.904 197.183 34.248 197.567 34.744C197.951 35.224 198.143 35.848 198.143 36.616C198.143 37.816 197.679 38.712 196.751 39.304C195.839 39.896 194.367 40.192 192.335 40.192C191.663 40.192 190.951 40.168 190.199 40.12C189.447 40.088 188.791 40.04 188.231 39.976V28.024ZM191.279 37.6C191.503 37.632 191.711 37.656 191.903 37.672C192.095 37.688 192.335 37.696 192.623 37.696C193.487 37.696 194.103 37.576 194.471 37.336C194.839 37.096 195.023 36.728 195.023 36.232C195.023 35.816 194.863 35.48 194.543 35.224C194.239 34.952 193.687 34.816 192.887 34.816H191.279V37.6ZM192.935 32.896C193.447 32.896 193.863 32.776 194.183 32.536C194.519 32.28 194.687 31.96 194.687 31.576C194.687 31.16 194.543 30.848 194.255 30.64C193.983 30.416 193.479 30.304 192.743 30.304C192.375 30.304 192.079 30.312 191.855 30.328C191.647 30.344 191.455 30.36 191.279 30.376V32.896H192.935ZM203.468 37.384C203.948 37.48 204.404 37.528 204.836 37.528C205.556 37.528 206.06 37.4 206.348 37.144C206.636 36.872 206.78 36.456 206.78 35.896C206.78 35.384 206.636 35 206.348 34.744C206.06 34.472 205.58 34.336 204.908 34.336C204.38 34.336 203.9 34.392 203.468 34.504V37.384ZM203.468 32.272C203.852 32.208 204.236 32.168 204.62 32.152C205.02 32.12 205.38 32.104 205.7 32.104C206.516 32.104 207.196 32.2 207.74 32.392C208.284 32.568 208.724 32.824 209.06 33.16C209.396 33.496 209.636 33.896 209.78 34.36C209.924 34.808 209.996 35.296 209.996 35.824C209.996 36.544 209.9 37.176 209.708 37.72C209.516 38.264 209.204 38.72 208.772 39.088C208.34 39.44 207.78 39.712 207.092 39.904C206.404 40.08 205.556 40.168 204.548 40.168C203.636 40.168 202.844 40.152 202.172 40.12C201.516 40.088 200.908 40.048 200.348 40V28H203.468V32.272ZM211.364 28H214.484V40H211.364V28ZM221.183 35.032H220.343V40H217.223V28H220.343V33.112L221.087 32.776L223.895 28H227.231L224.327 32.56L223.103 33.472L224.447 34.408L227.687 40H224.111L221.183 35.032ZM236.19 34.528L236.31 32.824H236.238L235.206 34.576L230.934 40H228.966V28H232.086V33.712L231.942 35.344H232.038L233.022 33.64L237.342 28H239.31V40H236.19V34.528Z" fill="black"/>
<path d="M97.088 96.938H89.696V104H87.87V88.6H89.696V95.31H97.088V88.6H98.914V104H97.088V96.938ZM112.595 90.228H107.799V104H105.973V90.228H101.177V88.6H112.595V90.228ZM126.69 93.66L126.91 91.35H126.8L125.964 93.462L121.96 100.414H121.41L117.164 93.44L116.372 91.35H116.262L116.57 93.638V104H114.854V88.6H116.218L121.036 96.476L121.762 98.192H121.806L122.488 96.432L127.086 88.6H128.516V104H126.69V93.66ZM141.365 104H132.257V88.6H134.083V102.372H141.365V104Z" fill="black"/>
<path d="M88.87 192.6H97.252V194.228H90.696V199.486H96.812V201.114H90.696V208H88.87V192.6ZM100.433 197H102.193V208H100.433V197ZM100.059 193.656C100.059 193.319 100.169 193.033 100.389 192.798C100.624 192.549 100.917 192.424 101.269 192.424C101.621 192.424 101.922 192.549 102.171 192.798C102.421 193.033 102.545 193.319 102.545 193.656C102.545 193.993 102.421 194.272 102.171 194.492C101.922 194.712 101.621 194.822 101.269 194.822C100.917 194.822 100.624 194.712 100.389 194.492C100.169 194.272 100.059 193.993 100.059 193.656ZM114.372 208.506C114.372 209.929 113.991 210.977 113.228 211.652C112.48 212.327 111.365 212.664 109.884 212.664C109.004 212.664 108.293 212.605 107.75 212.488C107.222 212.385 106.767 212.246 106.386 212.07L106.848 210.574C107.185 210.706 107.559 210.831 107.97 210.948C108.381 211.065 108.916 211.124 109.576 211.124C110.192 211.124 110.691 211.065 111.072 210.948C111.468 210.845 111.783 210.662 112.018 210.398C112.253 210.149 112.414 209.819 112.502 209.408C112.59 209.012 112.634 208.535 112.634 207.978V206.922H112.546C112.253 207.347 111.879 207.677 111.424 207.912C110.969 208.132 110.375 208.242 109.642 208.242C108.161 208.242 107.068 207.78 106.364 206.856C105.675 205.932 105.33 204.495 105.33 202.544C105.33 200.667 105.777 199.244 106.672 198.276C107.567 197.293 108.887 196.802 110.632 196.802C111.468 196.802 112.179 196.868 112.766 197C113.367 197.132 113.903 197.286 114.372 197.462V208.506ZM109.95 206.702C110.698 206.702 111.285 206.519 111.71 206.152C112.135 205.771 112.436 205.184 112.612 204.392V198.76C112.025 198.481 111.277 198.342 110.368 198.342C109.371 198.342 108.586 198.679 108.014 199.354C107.442 200.029 107.156 201.085 107.156 202.522C107.156 203.138 107.207 203.703 107.31 204.216C107.413 204.729 107.574 205.169 107.794 205.536C108.014 205.903 108.3 206.189 108.652 206.394C109.004 206.599 109.437 206.702 109.95 206.702ZM124.208 208V201.774C124.208 201.187 124.179 200.681 124.12 200.256C124.076 199.816 123.981 199.449 123.834 199.156C123.688 198.863 123.475 198.643 123.196 198.496C122.932 198.349 122.58 198.276 122.14 198.276C121.466 198.276 120.901 198.481 120.446 198.892C120.006 199.303 119.698 199.816 119.522 200.432V208H117.762V197H118.994L119.324 198.342H119.412C119.808 197.873 120.263 197.491 120.776 197.198C121.304 196.89 121.986 196.736 122.822 196.736C123.526 196.736 124.098 196.875 124.538 197.154C124.993 197.418 125.345 197.887 125.594 198.562C125.932 197.99 126.394 197.543 126.98 197.22C127.582 196.897 128.256 196.736 129.004 196.736C129.62 196.736 130.141 196.809 130.566 196.956C130.992 197.088 131.344 197.33 131.622 197.682C131.901 198.034 132.099 198.511 132.216 199.112C132.348 199.713 132.414 200.476 132.414 201.4V208H130.654V201.378C130.654 200.85 130.625 200.395 130.566 200.014C130.522 199.618 130.42 199.295 130.258 199.046C130.112 198.782 129.899 198.591 129.62 198.474C129.356 198.342 129.004 198.276 128.564 198.276C127.831 198.276 127.259 198.481 126.848 198.892C126.438 199.303 126.144 199.889 125.968 200.652V208H124.208ZM135.44 197.814C135.997 197.477 136.643 197.227 137.376 197.066C138.124 196.905 138.901 196.824 139.708 196.824C140.471 196.824 141.079 196.927 141.534 197.132C142.003 197.337 142.355 197.609 142.59 197.946C142.839 198.269 143.001 198.628 143.074 199.024C143.162 199.42 143.206 199.816 143.206 200.212C143.206 201.092 143.184 201.95 143.14 202.786C143.096 203.622 143.074 204.414 143.074 205.162C143.074 205.705 143.096 206.218 143.14 206.702C143.184 207.186 143.265 207.633 143.382 208.044H142.084L141.622 206.504H141.512C141.38 206.709 141.211 206.915 141.006 207.12C140.815 207.311 140.581 207.487 140.302 207.648C140.023 207.795 139.701 207.919 139.334 208.022C138.967 208.125 138.549 208.176 138.08 208.176C137.611 208.176 137.171 208.103 136.76 207.956C136.364 207.809 136.019 207.604 135.726 207.34C135.433 207.061 135.198 206.731 135.022 206.35C134.861 205.969 134.78 205.536 134.78 205.052C134.78 204.407 134.912 203.871 135.176 203.446C135.44 203.006 135.807 202.661 136.276 202.412C136.76 202.148 137.332 201.965 137.992 201.862C138.667 201.745 139.407 201.686 140.214 201.686C140.419 201.686 140.617 201.686 140.808 201.686C141.013 201.686 141.219 201.701 141.424 201.73C141.468 201.29 141.49 200.894 141.49 200.542C141.49 199.735 141.329 199.171 141.006 198.848C140.683 198.525 140.097 198.364 139.246 198.364C138.997 198.364 138.725 198.386 138.432 198.43C138.153 198.459 137.86 198.511 137.552 198.584C137.259 198.643 136.973 198.723 136.694 198.826C136.43 198.914 136.195 199.017 135.99 199.134L135.44 197.814ZM138.564 206.636C138.975 206.636 139.341 206.585 139.664 206.482C139.987 206.365 140.265 206.225 140.5 206.064C140.735 205.888 140.925 205.697 141.072 205.492C141.233 205.287 141.351 205.089 141.424 204.898V203.072C141.219 203.057 141.006 203.05 140.786 203.05C140.581 203.035 140.375 203.028 140.17 203.028C139.715 203.028 139.268 203.057 138.828 203.116C138.403 203.16 138.021 203.255 137.684 203.402C137.361 203.534 137.097 203.725 136.892 203.974C136.701 204.209 136.606 204.509 136.606 204.876C136.606 205.389 136.789 205.815 137.156 206.152C137.523 206.475 137.992 206.636 138.564 206.636Z" fill="black"/>
<path d="M95.196 255.732H89.52L87.98 260H86.176L92.006 244.358H92.842L98.694 260H96.78L95.196 255.732ZM90.114 254.148H94.646L92.93 249.462L92.38 247.13H92.358L91.808 249.506L90.114 254.148ZM109.011 256.216C109.011 256.964 109.018 257.646 109.033 258.262C109.048 258.863 109.114 259.457 109.231 260.044H108.043L107.603 258.482H107.515C107.222 258.995 106.796 259.421 106.239 259.758C105.682 260.095 105.029 260.264 104.281 260.264C102.814 260.264 101.722 259.802 101.003 258.878C100.299 257.954 99.9471 256.509 99.9471 254.544C99.9471 252.667 100.387 251.244 101.267 250.276C102.162 249.293 103.386 248.802 104.941 248.802C105.484 248.802 105.909 248.831 106.217 248.89C106.54 248.949 106.884 249.044 107.251 249.176V244.6H109.011V256.216ZM104.567 258.724C105.315 258.724 105.909 258.533 106.349 258.152C106.789 257.756 107.09 257.162 107.251 256.37V250.914C106.987 250.709 106.686 250.562 106.349 250.474C106.012 250.386 105.564 250.342 105.007 250.342C103.995 250.342 103.203 250.679 102.631 251.354C102.059 252.014 101.773 253.077 101.773 254.544C101.773 255.145 101.817 255.703 101.905 256.216C102.008 256.729 102.169 257.169 102.389 257.536C102.609 257.903 102.895 258.196 103.247 258.416C103.614 258.621 104.054 258.724 104.567 258.724ZM111.785 254.5C111.785 252.637 112.196 251.215 113.017 250.232C113.853 249.235 115.048 248.736 116.603 248.736C117.424 248.736 118.136 248.875 118.737 249.154C119.353 249.418 119.859 249.807 120.255 250.32C120.651 250.819 120.944 251.427 121.135 252.146C121.326 252.85 121.421 253.635 121.421 254.5C121.421 256.363 121.003 257.793 120.167 258.79C119.346 259.773 118.158 260.264 116.603 260.264C115.782 260.264 115.063 260.132 114.447 259.868C113.846 259.589 113.347 259.201 112.951 258.702C112.555 258.189 112.262 257.58 112.071 256.876C111.88 256.157 111.785 255.365 111.785 254.5ZM113.611 254.5C113.611 255.057 113.662 255.593 113.765 256.106C113.882 256.619 114.058 257.067 114.293 257.448C114.528 257.829 114.836 258.137 115.217 258.372C115.598 258.607 116.06 258.724 116.603 258.724C118.598 258.739 119.595 257.331 119.595 254.5C119.595 253.928 119.536 253.385 119.419 252.872C119.316 252.359 119.148 251.911 118.913 251.53C118.678 251.149 118.37 250.848 117.989 250.628C117.608 250.393 117.146 250.276 116.603 250.276C114.608 250.261 113.611 251.669 113.611 254.5ZM124.196 244.6H125.956V250.078H126.044C126.381 249.653 126.807 249.323 127.32 249.088C127.848 248.853 128.42 248.736 129.036 248.736C130.459 248.736 131.522 249.191 132.226 250.1C132.945 251.009 133.304 252.417 133.304 254.324C133.304 256.245 132.835 257.705 131.896 258.702C130.957 259.699 129.637 260.198 127.936 260.198C127.115 260.198 126.367 260.11 125.692 259.934C125.032 259.758 124.533 259.567 124.196 259.362V244.6ZM128.728 250.276C127.995 250.276 127.401 250.481 126.946 250.892C126.491 251.303 126.161 251.882 125.956 252.63V258.174C126.235 258.335 126.572 258.46 126.968 258.548C127.364 258.621 127.775 258.658 128.2 258.658C129.197 258.658 129.989 258.306 130.576 257.602C131.177 256.898 131.478 255.798 131.478 254.302C131.478 253.73 131.427 253.195 131.324 252.696C131.221 252.197 131.06 251.772 130.84 251.42C130.62 251.068 130.334 250.789 129.982 250.584C129.645 250.379 129.227 250.276 128.728 250.276ZM144.107 259.12C143.667 259.472 143.109 259.751 142.435 259.956C141.775 260.161 141.071 260.264 140.323 260.264C139.487 260.264 138.761 260.132 138.145 259.868C137.529 259.589 137.023 259.201 136.627 258.702C136.231 258.189 135.937 257.58 135.747 256.876C135.556 256.172 135.461 255.38 135.461 254.5C135.461 252.623 135.879 251.193 136.715 250.21C137.551 249.227 138.746 248.736 140.301 248.736C140.799 248.736 141.298 248.795 141.797 248.912C142.295 249.015 142.743 249.22 143.139 249.528C143.535 249.836 143.857 250.276 144.107 250.848C144.356 251.405 144.481 252.146 144.481 253.07C144.481 253.554 144.437 254.089 144.349 254.676H137.287C137.287 255.321 137.353 255.893 137.485 256.392C137.617 256.891 137.822 257.316 138.101 257.668C138.379 258.005 138.739 258.269 139.179 258.46C139.633 258.636 140.183 258.724 140.829 258.724C141.327 258.724 141.826 258.636 142.325 258.46C142.823 258.284 143.197 258.079 143.447 257.844L144.107 259.12ZM140.323 250.276C139.457 250.276 138.761 250.503 138.233 250.958C137.719 251.413 137.411 252.19 137.309 253.29H142.765C142.765 252.175 142.552 251.398 142.127 250.958C141.701 250.503 141.1 250.276 140.323 250.276ZM153.708 244.6H155.534V260H153.708V244.6ZM161.474 257.294C161.474 257.807 161.562 258.174 161.738 258.394C161.914 258.614 162.164 258.724 162.486 258.724C162.677 258.724 162.882 258.709 163.102 258.68C163.322 258.651 163.572 258.585 163.85 258.482L164.048 259.868C163.814 259.985 163.484 260.081 163.058 260.154C162.648 260.227 162.288 260.264 161.98 260.264C161.32 260.264 160.778 260.081 160.352 259.714C159.927 259.333 159.714 258.695 159.714 257.8V244.6H161.474V257.294ZM167.898 257.294C167.898 257.807 167.986 258.174 168.162 258.394C168.338 258.614 168.587 258.724 168.91 258.724C169.101 258.724 169.306 258.709 169.526 258.68C169.746 258.651 169.995 258.585 170.274 258.482L170.472 259.868C170.237 259.985 169.907 260.081 169.482 260.154C169.071 260.227 168.712 260.264 168.404 260.264C167.744 260.264 167.201 260.081 166.776 259.714C166.351 259.333 166.138 258.695 166.138 257.8V244.6H167.898V257.294ZM173.948 249V255.27C173.948 255.842 173.977 256.348 174.036 256.788C174.109 257.213 174.227 257.573 174.388 257.866C174.549 258.145 174.769 258.357 175.048 258.504C175.327 258.651 175.679 258.724 176.104 258.724C176.5 258.724 176.852 258.665 177.16 258.548C177.468 258.416 177.739 258.24 177.974 258.02C178.223 257.8 178.436 257.551 178.612 257.272C178.803 256.979 178.957 256.671 179.074 256.348V249H180.834V256.876C180.834 257.404 180.849 257.954 180.878 258.526C180.922 259.083 180.988 259.575 181.076 260H179.866L179.426 258.262H179.316C178.979 258.834 178.524 259.311 177.952 259.692C177.38 260.073 176.654 260.264 175.774 260.264C175.187 260.264 174.667 260.191 174.212 260.044C173.772 259.912 173.398 259.67 173.09 259.318C172.797 258.966 172.569 258.497 172.408 257.91C172.261 257.309 172.188 256.553 172.188 255.644V249H173.948ZM189.063 257.008C189.063 256.568 188.931 256.223 188.667 255.974C188.403 255.725 188.073 255.519 187.677 255.358C187.296 255.182 186.871 255.021 186.401 254.874C185.947 254.713 185.521 254.515 185.125 254.28C184.744 254.031 184.421 253.715 184.157 253.334C183.893 252.953 183.761 252.439 183.761 251.794C183.761 250.738 184.062 249.968 184.663 249.484C185.265 248.985 186.101 248.736 187.171 248.736C187.963 248.736 188.623 248.809 189.151 248.956C189.694 249.088 190.163 249.249 190.559 249.44L190.141 250.892C189.804 250.731 189.393 250.591 188.909 250.474C188.44 250.342 187.934 250.276 187.391 250.276C186.746 250.276 186.269 250.386 185.961 250.606C185.668 250.826 185.521 251.207 185.521 251.75C185.521 252.131 185.653 252.432 185.917 252.652C186.181 252.857 186.504 253.048 186.885 253.224C187.281 253.385 187.707 253.547 188.161 253.708C188.631 253.869 189.056 254.082 189.437 254.346C189.833 254.61 190.163 254.947 190.427 255.358C190.691 255.754 190.823 256.282 190.823 256.942C190.823 257.411 190.743 257.851 190.581 258.262C190.435 258.673 190.2 259.025 189.877 259.318C189.555 259.611 189.151 259.839 188.667 260C188.198 260.176 187.641 260.264 186.995 260.264C186.159 260.264 185.448 260.183 184.861 260.022C184.275 259.861 183.783 259.67 183.387 259.45L183.915 257.954C184.253 258.145 184.693 258.321 185.235 258.482C185.778 258.643 186.328 258.724 186.885 258.724C187.516 258.724 188.037 258.599 188.447 258.35C188.858 258.101 189.063 257.653 189.063 257.008ZM192.031 249H193.747V246.822L195.507 246.316V249H198.499V250.54H195.507V256.634C195.507 257.397 195.602 257.939 195.793 258.262C195.984 258.57 196.306 258.724 196.761 258.724C197.142 258.724 197.465 258.687 197.729 258.614C197.993 258.526 198.286 258.416 198.609 258.284L199.005 259.626C198.609 259.817 198.176 259.971 197.707 260.088C197.238 260.205 196.732 260.264 196.189 260.264C195.294 260.264 194.664 260.015 194.297 259.516C193.93 259.003 193.747 258.152 193.747 256.964V250.54H192.031V249ZM206.13 250.694C205.69 250.547 205.272 250.474 204.876 250.474C204.245 250.474 203.747 250.65 203.38 251.002C203.013 251.339 202.786 251.772 202.698 252.3V260H200.938V249H202.17L202.5 250.342H202.588C202.867 249.843 203.197 249.462 203.578 249.198C203.974 248.919 204.473 248.78 205.074 248.78C205.499 248.78 205.976 248.853 206.504 249L206.13 250.694ZM208.239 249.814C208.796 249.477 209.441 249.227 210.175 249.066C210.923 248.905 211.7 248.824 212.507 248.824C213.269 248.824 213.878 248.927 214.333 249.132C214.802 249.337 215.154 249.609 215.389 249.946C215.638 250.269 215.799 250.628 215.873 251.024C215.961 251.42 216.005 251.816 216.005 252.212C216.005 253.092 215.983 253.95 215.939 254.786C215.895 255.622 215.873 256.414 215.873 257.162C215.873 257.705 215.895 258.218 215.939 258.702C215.983 259.186 216.063 259.633 216.181 260.044H214.883L214.421 258.504H214.311C214.179 258.709 214.01 258.915 213.805 259.12C213.614 259.311 213.379 259.487 213.101 259.648C212.822 259.795 212.499 259.919 212.133 260.022C211.766 260.125 211.348 260.176 210.879 260.176C210.409 260.176 209.969 260.103 209.559 259.956C209.163 259.809 208.818 259.604 208.525 259.34C208.231 259.061 207.997 258.731 207.821 258.35C207.659 257.969 207.579 257.536 207.579 257.052C207.579 256.407 207.711 255.871 207.975 255.446C208.239 255.006 208.605 254.661 209.075 254.412C209.559 254.148 210.131 253.965 210.791 253.862C211.465 253.745 212.206 253.686 213.013 253.686C213.218 253.686 213.416 253.686 213.607 253.686C213.812 253.686 214.017 253.701 214.223 253.73C214.267 253.29 214.289 252.894 214.289 252.542C214.289 251.735 214.127 251.171 213.805 250.848C213.482 250.525 212.895 250.364 212.045 250.364C211.795 250.364 211.524 250.386 211.231 250.43C210.952 250.459 210.659 250.511 210.351 250.584C210.057 250.643 209.771 250.723 209.493 250.826C209.229 250.914 208.994 251.017 208.789 251.134L208.239 249.814ZM211.363 258.636C211.773 258.636 212.14 258.585 212.463 258.482C212.785 258.365 213.064 258.225 213.299 258.064C213.533 257.888 213.724 257.697 213.871 257.492C214.032 257.287 214.149 257.089 214.223 256.898V255.072C214.017 255.057 213.805 255.05 213.585 255.05C213.379 255.035 213.174 255.028 212.969 255.028C212.514 255.028 212.067 255.057 211.627 255.116C211.201 255.16 210.82 255.255 210.483 255.402C210.16 255.534 209.896 255.725 209.691 255.974C209.5 256.209 209.405 256.509 209.405 256.876C209.405 257.389 209.588 257.815 209.955 258.152C210.321 258.475 210.791 258.636 211.363 258.636ZM217.877 249H219.593V246.822L221.353 246.316V249H224.345V250.54H221.353V256.634C221.353 257.397 221.448 257.939 221.639 258.262C221.829 258.57 222.152 258.724 222.607 258.724C222.988 258.724 223.311 258.687 223.575 258.614C223.839 258.526 224.132 258.416 224.455 258.284L224.851 259.626C224.455 259.817 224.022 259.971 223.553 260.088C223.083 260.205 222.577 260.264 222.035 260.264C221.14 260.264 220.509 260.015 220.143 259.516C219.776 259.003 219.593 258.152 219.593 256.964V250.54H217.877V249ZM225.932 254.5C225.932 252.637 226.342 251.215 227.164 250.232C228 249.235 229.195 248.736 230.75 248.736C231.571 248.736 232.282 248.875 232.884 249.154C233.5 249.418 234.006 249.807 234.402 250.32C234.798 250.819 235.091 251.427 235.282 252.146C235.472 252.85 235.568 253.635 235.568 254.5C235.568 256.363 235.15 257.793 234.314 258.79C233.492 259.773 232.304 260.264 230.75 260.264C229.928 260.264 229.21 260.132 228.594 259.868C227.992 259.589 227.494 259.201 227.098 258.702C226.702 258.189 226.408 257.58 226.218 256.876C226.027 256.157 225.932 255.365 225.932 254.5ZM227.758 254.5C227.758 255.057 227.809 255.593 227.912 256.106C228.029 256.619 228.205 257.067 228.44 257.448C228.674 257.829 228.982 258.137 229.364 258.372C229.745 258.607 230.207 258.724 230.75 258.724C232.744 258.739 233.742 257.331 233.742 254.5C233.742 253.928 233.683 253.385 233.566 252.872C233.463 252.359 233.294 251.911 233.06 251.53C232.825 251.149 232.517 250.848 232.136 250.628C231.754 250.393 231.292 250.276 230.75 250.276C228.755 250.261 227.758 251.669 227.758 254.5ZM243.534 250.694C243.094 250.547 242.676 250.474 242.28 250.474C241.65 250.474 241.151 250.65 240.784 251.002C240.418 251.339 240.19 251.772 240.102 252.3V260H238.342V249H239.574L239.904 250.342H239.992C240.271 249.843 240.601 249.462 240.982 249.198C241.378 248.919 241.877 248.78 242.478 248.78C242.904 248.78 243.38 248.853 243.908 249L243.534 250.694Z" fill="black"/>
<path d="M97.726 311.362C97.286 311.699 96.7287 311.934 96.054 312.066C95.3793 312.198 94.6607 312.264 93.898 312.264C92.974 312.264 92.1087 312.11 91.302 311.802C90.4953 311.479 89.7913 310.995 89.19 310.35C88.5887 309.705 88.112 308.883 87.76 307.886C87.408 306.874 87.232 305.679 87.232 304.3C87.232 302.863 87.4227 301.645 87.804 300.648C88.2 299.636 88.7133 298.815 89.344 298.184C89.9893 297.539 90.708 297.069 91.5 296.776C92.292 296.483 93.0987 296.336 93.92 296.336C94.8 296.336 95.5187 296.387 96.076 296.49C96.6333 296.578 97.11 296.703 97.506 296.864L97.066 298.47C96.362 298.133 95.3573 297.964 94.052 297.964C93.4507 297.964 92.8567 298.074 92.27 298.294C91.6833 298.514 91.1553 298.873 90.686 299.372C90.2313 299.871 89.8647 300.523 89.586 301.33C89.3073 302.137 89.168 303.127 89.168 304.3C89.168 305.356 89.3 306.28 89.564 307.072C89.828 307.864 90.1873 308.524 90.642 309.052C91.1113 309.58 91.654 309.976 92.27 310.24C92.9007 310.504 93.5827 310.636 94.316 310.636C94.976 310.636 95.548 310.57 96.032 310.438C96.5307 310.306 96.9487 310.137 97.286 309.932L97.726 311.362ZM98.8729 306.5C98.8729 304.637 99.2836 303.215 100.105 302.232C100.941 301.235 102.136 300.736 103.691 300.736C104.512 300.736 105.224 300.875 105.825 301.154C106.441 301.418 106.947 301.807 107.343 302.32C107.739 302.819 108.032 303.427 108.223 304.146C108.414 304.85 108.509 305.635 108.509 306.5C108.509 308.363 108.091 309.793 107.255 310.79C106.434 311.773 105.246 312.264 103.691 312.264C102.87 312.264 102.151 312.132 101.535 311.868C100.934 311.589 100.435 311.201 100.039 310.702C99.6429 310.189 99.3496 309.58 99.1589 308.876C98.9683 308.157 98.8729 307.365 98.8729 306.5ZM100.699 306.5C100.699 307.057 100.75 307.593 100.853 308.106C100.97 308.619 101.146 309.067 101.381 309.448C101.616 309.829 101.924 310.137 102.305 310.372C102.686 310.607 103.148 310.724 103.691 310.724C105.686 310.739 106.683 309.331 106.683 306.5C106.683 305.928 106.624 305.385 106.507 304.872C106.404 304.359 106.236 303.911 106.001 303.53C105.766 303.149 105.458 302.848 105.077 302.628C104.696 302.393 104.234 302.276 103.691 302.276C101.696 302.261 100.699 303.669 100.699 306.5ZM116.476 302.694C116.036 302.547 115.618 302.474 115.222 302.474C114.591 302.474 114.093 302.65 113.726 303.002C113.359 303.339 113.132 303.772 113.044 304.3V312H111.284V301H112.516L112.846 302.342H112.934C113.213 301.843 113.543 301.462 113.924 301.198C114.32 300.919 114.819 300.78 115.42 300.78C115.845 300.78 116.322 300.853 116.85 301L116.476 302.694ZM126.79 311.12C126.35 311.472 125.793 311.751 125.118 311.956C124.458 312.161 123.754 312.264 123.006 312.264C122.17 312.264 121.444 312.132 120.828 311.868C120.212 311.589 119.706 311.201 119.31 310.702C118.914 310.189 118.621 309.58 118.43 308.876C118.24 308.172 118.144 307.38 118.144 306.5C118.144 304.623 118.562 303.193 119.398 302.21C120.234 301.227 121.43 300.736 122.984 300.736C123.483 300.736 123.982 300.795 124.48 300.912C124.979 301.015 125.426 301.22 125.822 301.528C126.218 301.836 126.541 302.276 126.79 302.848C127.04 303.405 127.164 304.146 127.164 305.07C127.164 305.554 127.12 306.089 127.032 306.676H119.97C119.97 307.321 120.036 307.893 120.168 308.392C120.3 308.891 120.506 309.316 120.784 309.668C121.063 310.005 121.422 310.269 121.862 310.46C122.317 310.636 122.867 310.724 123.512 310.724C124.011 310.724 124.51 310.636 125.008 310.46C125.507 310.284 125.881 310.079 126.13 309.844L126.79 311.12ZM123.006 302.276C122.141 302.276 121.444 302.503 120.916 302.958C120.403 303.413 120.095 304.19 119.992 305.29H125.448C125.448 304.175 125.236 303.398 124.81 302.958C124.385 302.503 123.784 302.276 123.006 302.276ZM131.89 309.294C131.89 309.807 131.978 310.174 132.154 310.394C132.33 310.614 132.58 310.724 132.902 310.724C133.093 310.724 133.298 310.709 133.518 310.68C133.738 310.651 133.988 310.585 134.266 310.482L134.464 311.868C134.23 311.985 133.9 312.081 133.474 312.154C133.064 312.227 132.704 312.264 132.396 312.264C131.736 312.264 131.194 312.081 130.768 311.714C130.343 311.333 130.13 310.695 130.13 309.8V296.6H131.89V309.294ZM142.397 296.6C142.676 296.556 142.984 296.527 143.321 296.512C143.673 296.483 144.033 296.468 144.399 296.468C144.781 296.453 145.147 296.446 145.499 296.446C145.866 296.431 146.203 296.424 146.511 296.424C147.743 296.424 148.807 296.615 149.701 296.996C150.611 297.377 151.359 297.913 151.945 298.602C152.532 299.277 152.965 300.091 153.243 301.044C153.537 301.997 153.683 303.046 153.683 304.19C153.683 305.231 153.544 306.236 153.265 307.204C153.001 308.157 152.576 309.008 151.989 309.756C151.403 310.489 150.64 311.083 149.701 311.538C148.763 311.978 147.626 312.198 146.291 312.198C146.057 312.198 145.749 312.191 145.367 312.176C145.001 312.176 144.619 312.161 144.223 312.132C143.827 312.117 143.461 312.103 143.123 312.088C142.786 312.073 142.544 312.051 142.397 312.022V296.6ZM146.555 298.052C146.365 298.052 146.152 298.052 145.917 298.052C145.697 298.052 145.477 298.059 145.257 298.074C145.037 298.089 144.832 298.103 144.641 298.118C144.465 298.133 144.326 298.147 144.223 298.162V310.482C144.297 310.497 144.436 310.511 144.641 310.526C144.847 310.526 145.059 310.533 145.279 310.548C145.499 310.548 145.712 310.555 145.917 310.57C146.123 310.57 146.262 310.57 146.335 310.57C147.362 310.57 148.22 310.394 148.909 310.042C149.613 309.69 150.171 309.221 150.581 308.634C151.007 308.033 151.307 307.351 151.483 306.588C151.659 305.811 151.747 305.011 151.747 304.19C151.747 303.471 151.667 302.753 151.505 302.034C151.344 301.301 151.065 300.641 150.669 300.054C150.273 299.467 149.738 298.991 149.063 298.624C148.403 298.243 147.567 298.052 146.555 298.052ZM161.808 302.694C161.368 302.547 160.95 302.474 160.554 302.474C159.923 302.474 159.425 302.65 159.058 303.002C158.691 303.339 158.464 303.772 158.376 304.3V312H156.616V301H157.848L158.178 302.342H158.266C158.545 301.843 158.875 301.462 159.256 301.198C159.652 300.919 160.151 300.78 160.752 300.78C161.177 300.78 161.654 300.853 162.182 301L161.808 302.694ZM163.916 301.814C164.474 301.477 165.119 301.227 165.852 301.066C166.6 300.905 167.378 300.824 168.184 300.824C168.947 300.824 169.556 300.927 170.01 301.132C170.48 301.337 170.832 301.609 171.066 301.946C171.316 302.269 171.477 302.628 171.55 303.024C171.638 303.42 171.682 303.816 171.682 304.212C171.682 305.092 171.66 305.95 171.616 306.786C171.572 307.622 171.55 308.414 171.55 309.162C171.55 309.705 171.572 310.218 171.616 310.702C171.66 311.186 171.741 311.633 171.858 312.044H170.56L170.098 310.504H169.988C169.856 310.709 169.688 310.915 169.482 311.12C169.292 311.311 169.057 311.487 168.778 311.648C168.5 311.795 168.177 311.919 167.81 312.022C167.444 312.125 167.026 312.176 166.556 312.176C166.087 312.176 165.647 312.103 165.236 311.956C164.84 311.809 164.496 311.604 164.202 311.34C163.909 311.061 163.674 310.731 163.498 310.35C163.337 309.969 163.256 309.536 163.256 309.052C163.256 308.407 163.388 307.871 163.652 307.446C163.916 307.006 164.283 306.661 164.752 306.412C165.236 306.148 165.808 305.965 166.468 305.862C167.143 305.745 167.884 305.686 168.69 305.686C168.896 305.686 169.094 305.686 169.284 305.686C169.49 305.686 169.695 305.701 169.9 305.73C169.944 305.29 169.966 304.894 169.966 304.542C169.966 303.735 169.805 303.171 169.482 302.848C169.16 302.525 168.573 302.364 167.722 302.364C167.473 302.364 167.202 302.386 166.908 302.43C166.63 302.459 166.336 302.511 166.028 302.584C165.735 302.643 165.449 302.723 165.17 302.826C164.906 302.914 164.672 303.017 164.466 303.134L163.916 301.814ZM167.04 310.636C167.451 310.636 167.818 310.585 168.14 310.482C168.463 310.365 168.742 310.225 168.976 310.064C169.211 309.888 169.402 309.697 169.548 309.492C169.71 309.287 169.827 309.089 169.9 308.898V307.072C169.695 307.057 169.482 307.05 169.262 307.05C169.057 307.035 168.852 307.028 168.646 307.028C168.192 307.028 167.744 307.057 167.304 307.116C166.879 307.16 166.498 307.255 166.16 307.402C165.838 307.534 165.574 307.725 165.368 307.974C165.178 308.209 165.082 308.509 165.082 308.876C165.082 309.389 165.266 309.815 165.632 310.152C165.999 310.475 166.468 310.636 167.04 310.636ZM182.135 301L184.665 307.424L185.215 309.536H185.259L185.677 307.38L187.635 301H189.307L185.611 312.242H184.753L181.871 304.982L181.453 303.178H181.387L180.947 305.004L178.175 312.242H177.317L173.489 301H175.403L177.581 307.402L177.955 309.536H177.977L178.505 307.358L180.859 301H182.135Z" fill="black"/>
<path d="M97.726 155.362C97.286 155.699 96.7287 155.934 96.054 156.066C95.3793 156.198 94.6607 156.264 93.898 156.264C92.974 156.264 92.1087 156.11 91.302 155.802C90.4953 155.479 89.7913 154.995 89.19 154.35C88.5887 153.705 88.112 152.883 87.76 151.886C87.408 150.874 87.232 149.679 87.232 148.3C87.232 146.863 87.4227 145.645 87.804 144.648C88.2 143.636 88.7133 142.815 89.344 142.184C89.9893 141.539 90.708 141.069 91.5 140.776C92.292 140.483 93.0987 140.336 93.92 140.336C94.8 140.336 95.5187 140.387 96.076 140.49C96.6333 140.578 97.11 140.703 97.506 140.864L97.066 142.47C96.362 142.133 95.3573 141.964 94.052 141.964C93.4507 141.964 92.8567 142.074 92.27 142.294C91.6833 142.514 91.1553 142.873 90.686 143.372C90.2313 143.871 89.8647 144.523 89.586 145.33C89.3073 146.137 89.168 147.127 89.168 148.3C89.168 149.356 89.3 150.28 89.564 151.072C89.828 151.864 90.1873 152.524 90.642 153.052C91.1113 153.58 91.654 153.976 92.27 154.24C92.9007 154.504 93.5827 154.636 94.316 154.636C94.976 154.636 95.548 154.57 96.032 154.438C96.5307 154.306 96.9487 154.137 97.286 153.932L97.726 155.362ZM107.39 152.084C107.39 151.468 107.207 150.969 106.84 150.588C106.474 150.192 106.012 149.847 105.454 149.554C104.912 149.246 104.318 148.96 103.672 148.696C103.027 148.432 102.426 148.117 101.868 147.75C101.326 147.369 100.871 146.907 100.504 146.364C100.138 145.807 99.9544 145.103 99.9544 144.252C99.9544 143.049 100.372 142.096 101.208 141.392C102.044 140.688 103.232 140.336 104.772 140.336C105.667 140.336 106.481 140.402 107.214 140.534C107.948 140.666 108.52 140.835 108.93 141.04L108.38 142.646C108.043 142.485 107.544 142.331 106.884 142.184C106.239 142.037 105.506 141.964 104.684 141.964C103.716 141.964 102.99 142.184 102.506 142.624C102.022 143.049 101.78 143.555 101.78 144.142C101.78 144.714 101.964 145.191 102.33 145.572C102.697 145.953 103.152 146.298 103.694 146.606C104.252 146.899 104.853 147.193 105.498 147.486C106.144 147.779 106.738 148.124 107.28 148.52C107.838 148.901 108.3 149.363 108.666 149.906C109.033 150.449 109.216 151.123 109.216 151.93C109.216 152.59 109.099 153.184 108.864 153.712C108.63 154.24 108.285 154.695 107.83 155.076C107.376 155.457 106.826 155.751 106.18 155.956C105.535 156.161 104.802 156.264 103.98 156.264C102.88 156.264 101.971 156.176 101.252 156C100.534 155.839 99.9764 155.655 99.5804 155.45L100.196 153.8C100.534 153.991 101.032 154.181 101.692 154.372C102.352 154.548 103.093 154.636 103.914 154.636C104.398 154.636 104.853 154.592 105.278 154.504C105.704 154.401 106.07 154.247 106.378 154.042C106.686 153.822 106.928 153.551 107.104 153.228C107.295 152.905 107.39 152.524 107.39 152.084ZM119.078 152.084C119.078 151.468 118.895 150.969 118.528 150.588C118.161 150.192 117.699 149.847 117.142 149.554C116.599 149.246 116.005 148.96 115.36 148.696C114.715 148.432 114.113 148.117 113.556 147.75C113.013 147.369 112.559 146.907 112.192 146.364C111.825 145.807 111.642 145.103 111.642 144.252C111.642 143.049 112.06 142.096 112.896 141.392C113.732 140.688 114.92 140.336 116.46 140.336C117.355 140.336 118.169 140.402 118.902 140.534C119.635 140.666 120.207 140.835 120.618 141.04L120.068 142.646C119.731 142.485 119.232 142.331 118.572 142.184C117.927 142.037 117.193 141.964 116.372 141.964C115.404 141.964 114.678 142.184 114.194 142.624C113.71 143.049 113.468 143.555 113.468 144.142C113.468 144.714 113.651 145.191 114.018 145.572C114.385 145.953 114.839 146.298 115.382 146.606C115.939 146.899 116.541 147.193 117.186 147.486C117.831 147.779 118.425 148.124 118.968 148.52C119.525 148.901 119.987 149.363 120.354 149.906C120.721 150.449 120.904 151.123 120.904 151.93C120.904 152.59 120.787 153.184 120.552 153.712C120.317 154.24 119.973 154.695 119.518 155.076C119.063 155.457 118.513 155.751 117.868 155.956C117.223 156.161 116.489 156.264 115.668 156.264C114.568 156.264 113.659 156.176 112.94 156C112.221 155.839 111.664 155.655 111.268 155.45L111.884 153.8C112.221 153.991 112.72 154.181 113.38 154.372C114.04 154.548 114.781 154.636 115.602 154.636C116.086 154.636 116.541 154.592 116.966 154.504C117.391 154.401 117.758 154.247 118.066 154.042C118.374 153.822 118.616 153.551 118.792 153.228C118.983 152.905 119.078 152.524 119.078 152.084Z" fill="black"/>
<path d="M95.196 359.732H89.52L87.98 364H86.176L92.006 348.358H92.842L98.694 364H96.78L95.196 359.732ZM90.114 358.148H94.646L92.93 353.462L92.38 351.13H92.358L91.808 353.506L90.114 358.148ZM109.011 360.216C109.011 360.964 109.018 361.646 109.033 362.262C109.048 362.863 109.114 363.457 109.231 364.044H108.043L107.603 362.482H107.515C107.222 362.995 106.796 363.421 106.239 363.758C105.682 364.095 105.029 364.264 104.281 364.264C102.814 364.264 101.722 363.802 101.003 362.878C100.299 361.954 99.9471 360.509 99.9471 358.544C99.9471 356.667 100.387 355.244 101.267 354.276C102.162 353.293 103.386 352.802 104.941 352.802C105.484 352.802 105.909 352.831 106.217 352.89C106.54 352.949 106.884 353.044 107.251 353.176V348.6H109.011V360.216ZM104.567 362.724C105.315 362.724 105.909 362.533 106.349 362.152C106.789 361.756 107.09 361.162 107.251 360.37V354.914C106.987 354.709 106.686 354.562 106.349 354.474C106.012 354.386 105.564 354.342 105.007 354.342C103.995 354.342 103.203 354.679 102.631 355.354C102.059 356.014 101.773 357.077 101.773 358.544C101.773 359.145 101.817 359.703 101.905 360.216C102.008 360.729 102.169 361.169 102.389 361.536C102.609 361.903 102.895 362.196 103.247 362.416C103.614 362.621 104.054 362.724 104.567 362.724ZM111.785 358.5C111.785 356.637 112.196 355.215 113.017 354.232C113.853 353.235 115.048 352.736 116.603 352.736C117.424 352.736 118.136 352.875 118.737 353.154C119.353 353.418 119.859 353.807 120.255 354.32C120.651 354.819 120.944 355.427 121.135 356.146C121.326 356.85 121.421 357.635 121.421 358.5C121.421 360.363 121.003 361.793 120.167 362.79C119.346 363.773 118.158 364.264 116.603 364.264C115.782 364.264 115.063 364.132 114.447 363.868C113.846 363.589 113.347 363.201 112.951 362.702C112.555 362.189 112.262 361.58 112.071 360.876C111.88 360.157 111.785 359.365 111.785 358.5ZM113.611 358.5C113.611 359.057 113.662 359.593 113.765 360.106C113.882 360.619 114.058 361.067 114.293 361.448C114.528 361.829 114.836 362.137 115.217 362.372C115.598 362.607 116.06 362.724 116.603 362.724C118.598 362.739 119.595 361.331 119.595 358.5C119.595 357.928 119.536 357.385 119.419 356.872C119.316 356.359 119.148 355.911 118.913 355.53C118.678 355.149 118.37 354.848 117.989 354.628C117.608 354.393 117.146 354.276 116.603 354.276C114.608 354.261 113.611 355.669 113.611 358.5ZM124.196 348.6H125.956V354.078H126.044C126.381 353.653 126.807 353.323 127.32 353.088C127.848 352.853 128.42 352.736 129.036 352.736C130.459 352.736 131.522 353.191 132.226 354.1C132.945 355.009 133.304 356.417 133.304 358.324C133.304 360.245 132.835 361.705 131.896 362.702C130.957 363.699 129.637 364.198 127.936 364.198C127.115 364.198 126.367 364.11 125.692 363.934C125.032 363.758 124.533 363.567 124.196 363.362V348.6ZM128.728 354.276C127.995 354.276 127.401 354.481 126.946 354.892C126.491 355.303 126.161 355.882 125.956 356.63V362.174C126.235 362.335 126.572 362.46 126.968 362.548C127.364 362.621 127.775 362.658 128.2 362.658C129.197 362.658 129.989 362.306 130.576 361.602C131.177 360.898 131.478 359.798 131.478 358.302C131.478 357.73 131.427 357.195 131.324 356.696C131.221 356.197 131.06 355.772 130.84 355.42C130.62 355.068 130.334 354.789 129.982 354.584C129.645 354.379 129.227 354.276 128.728 354.276ZM144.107 363.12C143.667 363.472 143.109 363.751 142.435 363.956C141.775 364.161 141.071 364.264 140.323 364.264C139.487 364.264 138.761 364.132 138.145 363.868C137.529 363.589 137.023 363.201 136.627 362.702C136.231 362.189 135.937 361.58 135.747 360.876C135.556 360.172 135.461 359.38 135.461 358.5C135.461 356.623 135.879 355.193 136.715 354.21C137.551 353.227 138.746 352.736 140.301 352.736C140.799 352.736 141.298 352.795 141.797 352.912C142.295 353.015 142.743 353.22 143.139 353.528C143.535 353.836 143.857 354.276 144.107 354.848C144.356 355.405 144.481 356.146 144.481 357.07C144.481 357.554 144.437 358.089 144.349 358.676H137.287C137.287 359.321 137.353 359.893 137.485 360.392C137.617 360.891 137.822 361.316 138.101 361.668C138.379 362.005 138.739 362.269 139.179 362.46C139.633 362.636 140.183 362.724 140.829 362.724C141.327 362.724 141.826 362.636 142.325 362.46C142.823 362.284 143.197 362.079 143.447 361.844L144.107 363.12ZM140.323 354.276C139.457 354.276 138.761 354.503 138.233 354.958C137.719 355.413 137.411 356.19 137.309 357.29H142.765C142.765 356.175 142.552 355.398 142.127 354.958C141.701 354.503 141.1 354.276 140.323 354.276ZM153.29 348.754C153.847 348.622 154.449 348.534 155.094 348.49C155.739 348.446 156.377 348.424 157.008 348.424C157.683 348.424 158.365 348.49 159.054 348.622C159.758 348.754 160.396 348.996 160.968 349.348C161.54 349.7 162.002 350.184 162.354 350.8C162.721 351.416 162.904 352.201 162.904 353.154C162.904 354.093 162.735 354.885 162.398 355.53C162.061 356.175 161.613 356.703 161.056 357.114C160.499 357.51 159.861 357.796 159.142 357.972C158.423 358.148 157.683 358.236 156.92 358.236C156.847 358.236 156.722 358.236 156.546 358.236C156.385 358.236 156.209 358.236 156.018 358.236C155.842 358.221 155.666 358.207 155.49 358.192C155.314 358.177 155.189 358.163 155.116 358.148V364H153.29V348.754ZM157.052 350.008C156.671 350.008 156.304 350.015 155.952 350.03C155.6 350.045 155.321 350.081 155.116 350.14V356.52C155.189 356.549 155.307 356.571 155.468 356.586C155.629 356.586 155.798 356.593 155.974 356.608C156.15 356.608 156.319 356.608 156.48 356.608C156.641 356.608 156.759 356.608 156.832 356.608C157.331 356.608 157.822 356.564 158.306 356.476C158.805 356.373 159.252 356.197 159.648 355.948C160.044 355.699 160.359 355.347 160.594 354.892C160.843 354.437 160.968 353.858 160.968 353.154C160.968 352.553 160.851 352.054 160.616 351.658C160.396 351.247 160.095 350.925 159.714 350.69C159.347 350.441 158.929 350.265 158.46 350.162C157.991 350.059 157.521 350.008 157.052 350.008ZM172.465 364V357.73C172.465 357.158 172.428 356.659 172.355 356.234C172.296 355.794 172.179 355.435 172.003 355.156C171.827 354.863 171.585 354.643 171.277 354.496C170.984 354.349 170.595 354.276 170.111 354.276C169.422 354.276 168.798 354.503 168.241 354.958C167.684 355.398 167.324 355.97 167.163 356.674V364H165.403V348.6H167.163V354.232H167.251C167.632 353.777 168.087 353.418 168.615 353.154C169.158 352.875 169.825 352.736 170.617 352.736C171.233 352.736 171.768 352.809 172.223 352.956C172.678 353.088 173.052 353.33 173.345 353.682C173.653 354.034 173.873 354.511 174.005 355.112C174.152 355.699 174.225 356.447 174.225 357.356V364H172.465ZM176.818 358.5C176.818 356.637 177.229 355.215 178.05 354.232C178.886 353.235 180.082 352.736 181.636 352.736C182.458 352.736 183.169 352.875 183.77 353.154C184.386 353.418 184.892 353.807 185.288 354.32C185.684 354.819 185.978 355.427 186.168 356.146C186.359 356.85 186.454 357.635 186.454 358.5C186.454 360.363 186.036 361.793 185.2 362.79C184.379 363.773 183.191 364.264 181.636 364.264C180.815 364.264 180.096 364.132 179.48 363.868C178.879 363.589 178.38 363.201 177.984 362.702C177.588 362.189 177.295 361.58 177.104 360.876C176.914 360.157 176.818 359.365 176.818 358.5ZM178.644 358.5C178.644 359.057 178.696 359.593 178.798 360.106C178.916 360.619 179.092 361.067 179.326 361.448C179.561 361.829 179.869 362.137 180.25 362.372C180.632 362.607 181.094 362.724 181.636 362.724C183.631 362.739 184.628 361.331 184.628 358.5C184.628 357.928 184.57 357.385 184.452 356.872C184.35 356.359 184.181 355.911 183.946 355.53C183.712 355.149 183.404 354.848 183.022 354.628C182.641 354.393 182.179 354.276 181.636 354.276C179.642 354.261 178.644 355.669 178.644 358.5ZM187.777 353H189.493V350.822L191.253 350.316V353H194.245V354.54H191.253V360.634C191.253 361.397 191.348 361.939 191.539 362.262C191.73 362.57 192.052 362.724 192.507 362.724C192.888 362.724 193.211 362.687 193.475 362.614C193.739 362.526 194.032 362.416 194.355 362.284L194.751 363.626C194.355 363.817 193.922 363.971 193.453 364.088C192.984 364.205 192.478 364.264 191.935 364.264C191.04 364.264 190.41 364.015 190.043 363.516C189.676 363.003 189.493 362.152 189.493 360.964V354.54H187.777V353ZM195.832 358.5C195.832 356.637 196.243 355.215 197.064 354.232C197.9 353.235 199.095 352.736 200.65 352.736C201.471 352.736 202.183 352.875 202.784 353.154C203.4 353.418 203.906 353.807 204.302 354.32C204.698 354.819 204.991 355.427 205.182 356.146C205.373 356.85 205.468 357.635 205.468 358.5C205.468 360.363 205.05 361.793 204.214 362.79C203.393 363.773 202.205 364.264 200.65 364.264C199.829 364.264 199.11 364.132 198.494 363.868C197.893 363.589 197.394 363.201 196.998 362.702C196.602 362.189 196.309 361.58 196.118 360.876C195.927 360.157 195.832 359.365 195.832 358.5ZM197.658 358.5C197.658 359.057 197.709 359.593 197.812 360.106C197.929 360.619 198.105 361.067 198.34 361.448C198.575 361.829 198.883 362.137 199.264 362.372C199.645 362.607 200.107 362.724 200.65 362.724C202.645 362.739 203.642 361.331 203.642 358.5C203.642 357.928 203.583 357.385 203.466 356.872C203.363 356.359 203.195 355.911 202.96 355.53C202.725 355.149 202.417 354.848 202.036 354.628C201.655 354.393 201.193 354.276 200.65 354.276C198.655 354.261 197.658 355.669 197.658 358.5ZM213.083 361.008C213.083 360.568 212.951 360.223 212.687 359.974C212.423 359.725 212.093 359.519 211.697 359.358C211.315 359.182 210.89 359.021 210.421 358.874C209.966 358.713 209.541 358.515 209.145 358.28C208.763 358.031 208.441 357.715 208.177 357.334C207.913 356.953 207.781 356.439 207.781 355.794C207.781 354.738 208.081 353.968 208.683 353.484C209.284 352.985 210.12 352.736 211.191 352.736C211.983 352.736 212.643 352.809 213.171 352.956C213.713 353.088 214.183 353.249 214.579 353.44L214.161 354.892C213.823 354.731 213.413 354.591 212.929 354.474C212.459 354.342 211.953 354.276 211.411 354.276C210.765 354.276 210.289 354.386 209.981 354.606C209.687 354.826 209.541 355.207 209.541 355.75C209.541 356.131 209.673 356.432 209.937 356.652C210.201 356.857 210.523 357.048 210.905 357.224C211.301 357.385 211.726 357.547 212.181 357.708C212.65 357.869 213.075 358.082 213.457 358.346C213.853 358.61 214.183 358.947 214.447 359.358C214.711 359.754 214.843 360.282 214.843 360.942C214.843 361.411 214.762 361.851 214.601 362.262C214.454 362.673 214.219 363.025 213.897 363.318C213.574 363.611 213.171 363.839 212.687 364C212.217 364.176 211.66 364.264 211.015 364.264C210.179 364.264 209.467 364.183 208.881 364.022C208.294 363.861 207.803 363.67 207.407 363.45L207.935 361.954C208.272 362.145 208.712 362.321 209.255 362.482C209.797 362.643 210.347 362.724 210.905 362.724C211.535 362.724 212.056 362.599 212.467 362.35C212.877 362.101 213.083 361.653 213.083 361.008ZM224.565 364V357.73C224.565 357.158 224.528 356.659 224.455 356.234C224.396 355.794 224.279 355.435 224.103 355.156C223.927 354.863 223.685 354.643 223.377 354.496C223.083 354.349 222.695 354.276 222.211 354.276C221.521 354.276 220.898 354.503 220.341 354.958C219.783 355.398 219.424 355.97 219.263 356.674V364H217.503V348.6H219.263V354.232H219.351C219.732 353.777 220.187 353.418 220.715 353.154C221.257 352.875 221.925 352.736 222.717 352.736C223.333 352.736 223.868 352.809 224.323 352.956C224.777 353.088 225.151 353.33 225.445 353.682C225.753 354.034 225.973 354.511 226.105 355.112C226.251 355.699 226.325 356.447 226.325 357.356V364H224.565ZM228.918 358.5C228.918 356.637 229.329 355.215 230.15 354.232C230.986 353.235 232.181 352.736 233.736 352.736C234.557 352.736 235.269 352.875 235.87 353.154C236.486 353.418 236.992 353.807 237.388 354.32C237.784 354.819 238.077 355.427 238.268 356.146C238.459 356.85 238.554 357.635 238.554 358.5C238.554 360.363 238.136 361.793 237.3 362.79C236.479 363.773 235.291 364.264 233.736 364.264C232.915 364.264 232.196 364.132 231.58 363.868C230.979 363.589 230.48 363.201 230.084 362.702C229.688 362.189 229.395 361.58 229.204 360.876C229.013 360.157 228.918 359.365 228.918 358.5ZM230.744 358.5C230.744 359.057 230.795 359.593 230.898 360.106C231.015 360.619 231.191 361.067 231.426 361.448C231.661 361.829 231.969 362.137 232.35 362.372C232.731 362.607 233.193 362.724 233.736 362.724C235.731 362.739 236.728 361.331 236.728 358.5C236.728 357.928 236.669 357.385 236.552 356.872C236.449 356.359 236.281 355.911 236.046 355.53C235.811 355.149 235.503 354.848 235.122 354.628C234.741 354.393 234.279 354.276 233.736 354.276C231.741 354.261 230.744 355.669 230.744 358.5ZM241.329 353H242.539L242.869 354.32H242.957C243.294 353.807 243.727 353.418 244.255 353.154C244.797 352.875 245.413 352.736 246.103 352.736C247.569 352.736 248.662 353.169 249.381 354.034C250.099 354.899 250.459 356.315 250.459 358.28C250.459 359.204 250.334 360.04 250.085 360.788C249.85 361.521 249.513 362.145 249.073 362.658C248.633 363.171 248.097 363.567 247.467 363.846C246.851 364.125 246.161 364.264 245.399 364.264C244.856 364.264 244.423 364.227 244.101 364.154C243.793 364.095 243.455 363.985 243.089 363.824V368.4H241.329V353ZM245.773 354.276C245.025 354.276 244.431 354.474 243.991 354.87C243.565 355.251 243.265 355.838 243.089 356.63V362.086C243.353 362.291 243.653 362.453 243.991 362.57C244.328 362.673 244.775 362.724 245.333 362.724C246.345 362.724 247.144 362.35 247.731 361.602C248.332 360.839 248.633 359.725 248.633 358.258C248.633 357.657 248.581 357.114 248.479 356.63C248.376 356.131 248.207 355.713 247.973 355.376C247.753 355.024 247.459 354.753 247.093 354.562C246.741 354.371 246.301 354.276 245.773 354.276Z" fill="black"/>
<path d="M97.714 452.6H99.474V462.874C99.474 463.798 99.3493 464.597 99.1 465.272C98.8653 465.947 98.5207 466.504 98.066 466.944C97.626 467.369 97.0907 467.685 96.46 467.89C95.8293 468.095 95.1327 468.198 94.37 468.198C92.5513 468.198 91.18 467.787 90.256 466.966C89.332 466.145 88.87 464.898 88.87 463.226V452.6H90.696V462.368C90.696 463.145 90.7693 463.805 90.916 464.348C91.0773 464.876 91.312 465.309 91.62 465.646C91.928 465.969 92.3093 466.203 92.764 466.35C93.2333 466.497 93.776 466.57 94.392 466.57C95.58 466.57 96.4307 466.247 96.944 465.602C97.4573 464.942 97.714 463.864 97.714 462.368V452.6ZM110.108 468V461.73C110.108 460.586 109.939 459.728 109.602 459.156C109.279 458.569 108.678 458.276 107.798 458.276C107.02 458.276 106.375 458.489 105.862 458.914C105.363 459.325 105.011 459.845 104.806 460.476V468H103.046V457H104.278L104.608 458.342H104.696C105.048 457.873 105.517 457.491 106.104 457.198C106.705 456.89 107.416 456.736 108.238 456.736C108.839 456.736 109.367 456.809 109.822 456.956C110.276 457.088 110.65 457.33 110.944 457.682C111.252 458.034 111.479 458.511 111.626 459.112C111.787 459.699 111.868 460.447 111.868 461.356V468H110.108ZM115.451 457H117.211V468H115.451V457ZM115.077 453.656C115.077 453.319 115.187 453.033 115.407 452.798C115.641 452.549 115.935 452.424 116.287 452.424C116.639 452.424 116.939 452.549 117.189 452.798C117.438 453.033 117.563 453.319 117.563 453.656C117.563 453.993 117.438 454.272 117.189 454.492C116.939 454.712 116.639 454.822 116.287 454.822C115.935 454.822 115.641 454.712 115.407 454.492C115.187 454.272 115.077 453.993 115.077 453.656ZM119.512 457H121.228V454.822L122.988 454.316V457H125.98V458.54H122.988V464.634C122.988 465.397 123.083 465.939 123.274 466.262C123.464 466.57 123.787 466.724 124.242 466.724C124.623 466.724 124.946 466.687 125.21 466.614C125.474 466.526 125.767 466.416 126.09 466.284L126.486 467.626C126.09 467.817 125.657 467.971 125.188 468.088C124.718 468.205 124.212 468.264 123.67 468.264C122.775 468.264 122.144 468.015 121.778 467.516C121.411 467.003 121.228 466.152 121.228 464.964V458.54H119.512V457ZM131.653 464.128L132.269 466.24H132.379L132.863 464.106L134.997 457H136.779L133.523 466.878C133.273 467.597 133.024 468.293 132.775 468.968C132.54 469.643 132.276 470.244 131.983 470.772C131.689 471.3 131.359 471.718 130.993 472.026C130.626 472.349 130.201 472.51 129.717 472.51C129.189 472.51 128.756 472.437 128.419 472.29L128.727 470.772C128.917 470.845 129.101 470.882 129.277 470.882C129.687 470.882 130.083 470.662 130.465 470.222C130.846 469.797 131.161 469.056 131.411 468L126.989 457H129.013L131.653 464.128Z" fill="black"/>
<path d="M97.726 519.362C97.286 519.699 96.7287 519.934 96.054 520.066C95.3793 520.198 94.6607 520.264 93.898 520.264C92.974 520.264 92.1087 520.11 91.302 519.802C90.4953 519.479 89.7913 518.995 89.19 518.35C88.5887 517.705 88.112 516.883 87.76 515.886C87.408 514.874 87.232 513.679 87.232 512.3C87.232 510.863 87.4227 509.645 87.804 508.648C88.2 507.636 88.7133 506.815 89.344 506.184C89.9893 505.539 90.708 505.069 91.5 504.776C92.292 504.483 93.0987 504.336 93.92 504.336C94.8 504.336 95.5187 504.387 96.076 504.49C96.6333 504.578 97.11 504.703 97.506 504.864L97.066 506.47C96.362 506.133 95.3573 505.964 94.052 505.964C93.4507 505.964 92.8567 506.074 92.27 506.294C91.6833 506.514 91.1553 506.873 90.686 507.372C90.2313 507.871 89.8647 508.523 89.586 509.33C89.3073 510.137 89.168 511.127 89.168 512.3C89.168 513.356 89.3 514.28 89.564 515.072C89.828 515.864 90.1873 516.524 90.642 517.052C91.1113 517.58 91.654 517.976 92.27 518.24C92.9007 518.504 93.5827 518.636 94.316 518.636C94.976 518.636 95.548 518.57 96.032 518.438C96.5307 518.306 96.9487 518.137 97.286 517.932L97.726 519.362ZM104.728 515.05H102.418L101.56 518.724H100.042L100.9 515.05H99.1844L99.4924 513.642H101.23L101.912 510.76H100.284L100.592 509.352H102.242L103.078 505.876H104.596L103.76 509.352H106.07L106.906 505.876H108.424L107.588 509.352H109.282L108.93 510.76H107.258L106.576 513.642H108.182L107.83 515.05H106.246L105.388 518.724H103.87L104.728 515.05ZM102.748 513.642H105.058L105.74 510.76H103.43L102.748 513.642Z" fill="black"/>
<path d="M88.464 556.6H90.29V568.612C90.29 569.785 90.026 570.68 89.498 571.296C88.9847 571.912 88.2 572.22 87.144 572.22C87.0267 572.22 86.88 572.213 86.704 572.198C86.528 572.183 86.352 572.161 86.176 572.132C86 572.103 85.8313 572.066 85.67 572.022C85.494 571.978 85.3547 571.927 85.252 571.868L85.604 570.306C86.0147 570.497 86.462 570.592 86.946 570.592C87.562 570.592 87.9653 570.379 88.156 569.954C88.3613 569.514 88.464 568.92 88.464 568.172V556.6ZM101.224 568.084C101.224 567.468 101.041 566.969 100.674 566.588C100.308 566.192 99.8457 565.847 99.2883 565.554C98.7457 565.246 98.1517 564.96 97.5063 564.696C96.861 564.432 96.2597 564.117 95.7023 563.75C95.1597 563.369 94.705 562.907 94.3383 562.364C93.9717 561.807 93.7883 561.103 93.7883 560.252C93.7883 559.049 94.2063 558.096 95.0423 557.392C95.8783 556.688 97.0663 556.336 98.6063 556.336C99.501 556.336 100.315 556.402 101.048 556.534C101.782 556.666 102.354 556.835 102.764 557.04L102.214 558.646C101.877 558.485 101.378 558.331 100.718 558.184C100.073 558.037 99.3397 557.964 98.5183 557.964C97.5503 557.964 96.8243 558.184 96.3403 558.624C95.8563 559.049 95.6143 559.555 95.6143 560.142C95.6143 560.714 95.7977 561.191 96.1643 561.572C96.531 561.953 96.9857 562.298 97.5283 562.606C98.0857 562.899 98.687 563.193 99.3323 563.486C99.9777 563.779 100.572 564.124 101.114 564.52C101.672 564.901 102.134 565.363 102.5 565.906C102.867 566.449 103.05 567.123 103.05 567.93C103.05 568.59 102.933 569.184 102.698 569.712C102.464 570.24 102.119 570.695 101.664 571.076C101.21 571.457 100.66 571.751 100.014 571.956C99.369 572.161 98.6357 572.264 97.8143 572.264C96.7143 572.264 95.805 572.176 95.0863 572C94.3677 571.839 93.8103 571.655 93.4143 571.45L94.0303 569.8C94.3677 569.991 94.8663 570.181 95.5263 570.372C96.1863 570.548 96.927 570.636 97.7483 570.636C98.2323 570.636 98.687 570.592 99.1123 570.504C99.5377 570.401 99.9043 570.247 100.212 570.042C100.52 569.822 100.762 569.551 100.938 569.228C101.129 568.905 101.224 568.524 101.224 568.084Z" fill="black"/>
<path d="M95.196 411.732H89.52L87.98 416H86.176L92.006 400.358H92.842L98.694 416H96.78L95.196 411.732ZM90.114 410.148H94.646L92.93 405.462L92.38 403.13H92.358L91.808 405.506L90.114 410.148ZM109.011 412.216C109.011 412.964 109.018 413.646 109.033 414.262C109.048 414.863 109.114 415.457 109.231 416.044H108.043L107.603 414.482H107.515C107.222 414.995 106.796 415.421 106.239 415.758C105.682 416.095 105.029 416.264 104.281 416.264C102.814 416.264 101.722 415.802 101.003 414.878C100.299 413.954 99.9471 412.509 99.9471 410.544C99.9471 408.667 100.387 407.244 101.267 406.276C102.162 405.293 103.386 404.802 104.941 404.802C105.484 404.802 105.909 404.831 106.217 404.89C106.54 404.949 106.884 405.044 107.251 405.176V400.6H109.011V412.216ZM104.567 414.724C105.315 414.724 105.909 414.533 106.349 414.152C106.789 413.756 107.09 413.162 107.251 412.37V406.914C106.987 406.709 106.686 406.562 106.349 406.474C106.012 406.386 105.564 406.342 105.007 406.342C103.995 406.342 103.203 406.679 102.631 407.354C102.059 408.014 101.773 409.077 101.773 410.544C101.773 411.145 101.817 411.703 101.905 412.216C102.008 412.729 102.169 413.169 102.389 413.536C102.609 413.903 102.895 414.196 103.247 414.416C103.614 414.621 104.054 414.724 104.567 414.724ZM111.785 410.5C111.785 408.637 112.196 407.215 113.017 406.232C113.853 405.235 115.048 404.736 116.603 404.736C117.424 404.736 118.136 404.875 118.737 405.154C119.353 405.418 119.859 405.807 120.255 406.32C120.651 406.819 120.944 407.427 121.135 408.146C121.326 408.85 121.421 409.635 121.421 410.5C121.421 412.363 121.003 413.793 120.167 414.79C119.346 415.773 118.158 416.264 116.603 416.264C115.782 416.264 115.063 416.132 114.447 415.868C113.846 415.589 113.347 415.201 112.951 414.702C112.555 414.189 112.262 413.58 112.071 412.876C111.88 412.157 111.785 411.365 111.785 410.5ZM113.611 410.5C113.611 411.057 113.662 411.593 113.765 412.106C113.882 412.619 114.058 413.067 114.293 413.448C114.528 413.829 114.836 414.137 115.217 414.372C115.598 414.607 116.06 414.724 116.603 414.724C118.598 414.739 119.595 413.331 119.595 410.5C119.595 409.928 119.536 409.385 119.419 408.872C119.316 408.359 119.148 407.911 118.913 407.53C118.678 407.149 118.37 406.848 117.989 406.628C117.608 406.393 117.146 406.276 116.603 406.276C114.608 406.261 113.611 407.669 113.611 410.5ZM124.196 400.6H125.956V406.078H126.044C126.381 405.653 126.807 405.323 127.32 405.088C127.848 404.853 128.42 404.736 129.036 404.736C130.459 404.736 131.522 405.191 132.226 406.1C132.945 407.009 133.304 408.417 133.304 410.324C133.304 412.245 132.835 413.705 131.896 414.702C130.957 415.699 129.637 416.198 127.936 416.198C127.115 416.198 126.367 416.11 125.692 415.934C125.032 415.758 124.533 415.567 124.196 415.362V400.6ZM128.728 406.276C127.995 406.276 127.401 406.481 126.946 406.892C126.491 407.303 126.161 407.882 125.956 408.63V414.174C126.235 414.335 126.572 414.46 126.968 414.548C127.364 414.621 127.775 414.658 128.2 414.658C129.197 414.658 129.989 414.306 130.576 413.602C131.177 412.898 131.478 411.798 131.478 410.302C131.478 409.73 131.427 409.195 131.324 408.696C131.221 408.197 131.06 407.772 130.84 407.42C130.62 407.068 130.334 406.789 129.982 406.584C129.645 406.379 129.227 406.276 128.728 406.276ZM144.107 415.12C143.667 415.472 143.109 415.751 142.435 415.956C141.775 416.161 141.071 416.264 140.323 416.264C139.487 416.264 138.761 416.132 138.145 415.868C137.529 415.589 137.023 415.201 136.627 414.702C136.231 414.189 135.937 413.58 135.747 412.876C135.556 412.172 135.461 411.38 135.461 410.5C135.461 408.623 135.879 407.193 136.715 406.21C137.551 405.227 138.746 404.736 140.301 404.736C140.799 404.736 141.298 404.795 141.797 404.912C142.295 405.015 142.743 405.22 143.139 405.528C143.535 405.836 143.857 406.276 144.107 406.848C144.356 407.405 144.481 408.146 144.481 409.07C144.481 409.554 144.437 410.089 144.349 410.676H137.287C137.287 411.321 137.353 411.893 137.485 412.392C137.617 412.891 137.822 413.316 138.101 413.668C138.379 414.005 138.739 414.269 139.179 414.46C139.633 414.636 140.183 414.724 140.829 414.724C141.327 414.724 141.826 414.636 142.325 414.46C142.823 414.284 143.197 414.079 143.447 413.844L144.107 415.12ZM140.323 406.276C139.457 406.276 138.761 406.503 138.233 406.958C137.719 407.413 137.411 408.19 137.309 409.29H142.765C142.765 408.175 142.552 407.398 142.127 406.958C141.701 406.503 141.1 406.276 140.323 406.276ZM153.29 400.754C153.847 400.622 154.449 400.534 155.094 400.49C155.739 400.446 156.377 400.424 157.008 400.424C157.683 400.424 158.365 400.49 159.054 400.622C159.758 400.754 160.396 400.996 160.968 401.348C161.54 401.7 162.002 402.184 162.354 402.8C162.721 403.416 162.904 404.201 162.904 405.154C162.904 406.093 162.735 406.885 162.398 407.53C162.061 408.175 161.613 408.703 161.056 409.114C160.499 409.51 159.861 409.796 159.142 409.972C158.423 410.148 157.683 410.236 156.92 410.236C156.847 410.236 156.722 410.236 156.546 410.236C156.385 410.236 156.209 410.236 156.018 410.236C155.842 410.221 155.666 410.207 155.49 410.192C155.314 410.177 155.189 410.163 155.116 410.148V416H153.29V400.754ZM157.052 402.008C156.671 402.008 156.304 402.015 155.952 402.03C155.6 402.045 155.321 402.081 155.116 402.14V408.52C155.189 408.549 155.307 408.571 155.468 408.586C155.629 408.586 155.798 408.593 155.974 408.608C156.15 408.608 156.319 408.608 156.48 408.608C156.641 408.608 156.759 408.608 156.832 408.608C157.331 408.608 157.822 408.564 158.306 408.476C158.805 408.373 159.252 408.197 159.648 407.948C160.044 407.699 160.359 407.347 160.594 406.892C160.843 406.437 160.968 405.858 160.968 405.154C160.968 404.553 160.851 404.054 160.616 403.658C160.396 403.247 160.095 402.925 159.714 402.69C159.347 402.441 158.929 402.265 158.46 402.162C157.991 402.059 157.521 402.008 157.052 402.008ZM169.822 406.694C169.382 406.547 168.964 406.474 168.568 406.474C167.937 406.474 167.438 406.65 167.072 407.002C166.705 407.339 166.478 407.772 166.39 408.3V416H164.63V405H165.862L166.192 406.342H166.28C166.558 405.843 166.888 405.462 167.27 405.198C167.666 404.919 168.164 404.78 168.766 404.78C169.191 404.78 169.668 404.853 170.196 405L169.822 406.694ZM180.136 415.12C179.696 415.472 179.139 415.751 178.464 415.956C177.804 416.161 177.1 416.264 176.352 416.264C175.516 416.264 174.79 416.132 174.174 415.868C173.558 415.589 173.052 415.201 172.656 414.702C172.26 414.189 171.967 413.58 171.776 412.876C171.585 412.172 171.49 411.38 171.49 410.5C171.49 408.623 171.908 407.193 172.744 406.21C173.58 405.227 174.775 404.736 176.33 404.736C176.829 404.736 177.327 404.795 177.826 404.912C178.325 405.015 178.772 405.22 179.168 405.528C179.564 405.836 179.887 406.276 180.136 406.848C180.385 407.405 180.51 408.146 180.51 409.07C180.51 409.554 180.466 410.089 180.378 410.676H173.316C173.316 411.321 173.382 411.893 173.514 412.392C173.646 412.891 173.851 413.316 174.13 413.668C174.409 414.005 174.768 414.269 175.208 414.46C175.663 414.636 176.213 414.724 176.858 414.724C177.357 414.724 177.855 414.636 178.354 414.46C178.853 414.284 179.227 414.079 179.476 413.844L180.136 415.12ZM176.352 406.276C175.487 406.276 174.79 406.503 174.262 406.958C173.749 407.413 173.441 408.19 173.338 409.29H178.794C178.794 408.175 178.581 407.398 178.156 406.958C177.731 406.503 177.129 406.276 176.352 406.276ZM189.724 416V409.774C189.724 409.187 189.695 408.681 189.636 408.256C189.592 407.816 189.497 407.449 189.35 407.156C189.203 406.863 188.991 406.643 188.712 406.496C188.448 406.349 188.096 406.276 187.656 406.276C186.981 406.276 186.417 406.481 185.962 406.892C185.522 407.303 185.214 407.816 185.038 408.432V416H183.278V405H184.51L184.84 406.342H184.928C185.324 405.873 185.779 405.491 186.292 405.198C186.82 404.89 187.502 404.736 188.338 404.736C189.042 404.736 189.614 404.875 190.054 405.154C190.509 405.418 190.861 405.887 191.11 406.562C191.447 405.99 191.909 405.543 192.496 405.22C193.097 404.897 193.772 404.736 194.52 404.736C195.136 404.736 195.657 404.809 196.082 404.956C196.507 405.088 196.859 405.33 197.138 405.682C197.417 406.034 197.615 406.511 197.732 407.112C197.864 407.713 197.93 408.476 197.93 409.4V416H196.17V409.378C196.17 408.85 196.141 408.395 196.082 408.014C196.038 407.618 195.935 407.295 195.774 407.046C195.627 406.782 195.415 406.591 195.136 406.474C194.872 406.342 194.52 406.276 194.08 406.276C193.347 406.276 192.775 406.481 192.364 406.892C191.953 407.303 191.66 407.889 191.484 408.652V416H189.724ZM201.506 405H203.266V416H201.506V405ZM201.132 401.656C201.132 401.319 201.242 401.033 201.462 400.798C201.696 400.549 201.99 400.424 202.341 400.424C202.694 400.424 202.994 400.549 203.244 400.798C203.493 401.033 203.618 401.319 203.618 401.656C203.618 401.993 203.493 402.272 203.244 402.492C202.994 402.712 202.694 402.822 202.341 402.822C201.99 402.822 201.696 402.712 201.462 402.492C201.242 402.272 201.132 401.993 201.132 401.656ZM215.048 415.12C214.608 415.472 214.051 415.751 213.376 415.956C212.716 416.161 212.012 416.264 211.264 416.264C210.428 416.264 209.702 416.132 209.086 415.868C208.47 415.589 207.964 415.201 207.568 414.702C207.172 414.189 206.879 413.58 206.688 412.876C206.498 412.172 206.402 411.38 206.402 410.5C206.402 408.623 206.82 407.193 207.656 406.21C208.492 405.227 209.688 404.736 211.242 404.736C211.741 404.736 212.24 404.795 212.738 404.912C213.237 405.015 213.684 405.22 214.08 405.528C214.476 405.836 214.799 406.276 215.048 406.848C215.298 407.405 215.422 408.146 215.422 409.07C215.422 409.554 215.378 410.089 215.29 410.676H208.228C208.228 411.321 208.294 411.893 208.426 412.392C208.558 412.891 208.764 413.316 209.042 413.668C209.321 414.005 209.68 414.269 210.12 414.46C210.575 414.636 211.125 414.724 211.77 414.724C212.269 414.724 212.768 414.636 213.266 414.46C213.765 414.284 214.139 414.079 214.388 413.844L215.048 415.12ZM211.264 406.276C210.399 406.276 209.702 406.503 209.174 406.958C208.661 407.413 208.353 408.19 208.25 409.29H213.706C213.706 408.175 213.494 407.398 213.068 406.958C212.643 406.503 212.042 406.276 211.264 406.276ZM223.382 406.694C222.942 406.547 222.524 406.474 222.128 406.474C221.497 406.474 220.999 406.65 220.632 407.002C220.265 407.339 220.038 407.772 219.95 408.3V416H218.19V405H219.422L219.752 406.342H219.84C220.119 405.843 220.449 405.462 220.83 405.198C221.226 404.919 221.725 404.78 222.326 404.78C222.751 404.78 223.228 404.853 223.756 405L223.382 406.694ZM231.708 400.754C232.265 400.622 232.867 400.534 233.512 400.49C234.157 400.446 234.795 400.424 235.426 400.424C236.101 400.424 236.783 400.49 237.472 400.622C238.176 400.754 238.814 400.996 239.386 401.348C239.958 401.7 240.42 402.184 240.772 402.8C241.139 403.416 241.322 404.201 241.322 405.154C241.322 406.093 241.153 406.885 240.816 407.53C240.479 408.175 240.031 408.703 239.474 409.114C238.917 409.51 238.279 409.796 237.56 409.972C236.841 410.148 236.101 410.236 235.338 410.236C235.265 410.236 235.14 410.236 234.964 410.236C234.803 410.236 234.627 410.236 234.436 410.236C234.26 410.221 234.084 410.207 233.908 410.192C233.732 410.177 233.607 410.163 233.534 410.148V416H231.708V400.754ZM235.47 402.008C235.089 402.008 234.722 402.015 234.37 402.03C234.018 402.045 233.739 402.081 233.534 402.14V408.52C233.607 408.549 233.725 408.571 233.886 408.586C234.047 408.586 234.216 408.593 234.392 408.608C234.568 408.608 234.737 408.608 234.898 408.608C235.059 408.608 235.177 408.608 235.25 408.608C235.749 408.608 236.24 408.564 236.724 408.476C237.223 408.373 237.67 408.197 238.066 407.948C238.462 407.699 238.777 407.347 239.012 406.892C239.261 406.437 239.386 405.858 239.386 405.154C239.386 404.553 239.269 404.054 239.034 403.658C238.814 403.247 238.513 402.925 238.132 402.69C237.765 402.441 237.347 402.265 236.878 402.162C236.409 402.059 235.939 402.008 235.47 402.008ZM248.24 406.694C247.8 406.547 247.382 406.474 246.986 406.474C246.355 406.474 245.856 406.65 245.49 407.002C245.123 407.339 244.896 407.772 244.808 408.3V416H243.048V405H244.28L244.61 406.342H244.698C244.976 405.843 245.306 405.462 245.688 405.198C246.084 404.919 246.582 404.78 247.184 404.78C247.609 404.78 248.086 404.853 248.614 405L248.24 406.694ZM249.908 410.5C249.908 408.637 250.319 407.215 251.14 406.232C251.976 405.235 253.171 404.736 254.726 404.736C255.547 404.736 256.259 404.875 256.86 405.154C257.476 405.418 257.982 405.807 258.378 406.32C258.774 406.819 259.067 407.427 259.258 408.146C259.449 408.85 259.544 409.635 259.544 410.5C259.544 412.363 259.126 413.793 258.29 414.79C257.469 415.773 256.281 416.264 254.726 416.264C253.905 416.264 253.186 416.132 252.57 415.868C251.969 415.589 251.47 415.201 251.074 414.702C250.678 414.189 250.385 413.58 250.194 412.876C250.003 412.157 249.908 411.365 249.908 410.5ZM251.734 410.5C251.734 411.057 251.785 411.593 251.888 412.106C252.005 412.619 252.181 413.067 252.416 413.448C252.651 413.829 252.959 414.137 253.34 414.372C253.721 414.607 254.183 414.724 254.726 414.724C256.721 414.739 257.718 413.331 257.718 410.5C257.718 409.928 257.659 409.385 257.542 408.872C257.439 408.359 257.271 407.911 257.036 407.53C256.801 407.149 256.493 406.848 256.112 406.628C255.731 406.393 255.269 406.276 254.726 406.276C252.731 406.261 251.734 407.669 251.734 410.5Z" fill="black"/>
<circle cx="57" cy="96" r="5" fill="#2381DF"/>
<circle cx="57" cy="148" r="5" fill="#2381DF"/>
<circle cx="57" cy="515" r="5" fill="#2381DF"/>
<circle cx="57" cy="567" r="5" fill="#2381DF"/>
<circle cx="57" cy="413" r="5" fill="#2381DF"/>
<circle cx="57" cy="465" r="5" fill="#2381DF"/>
<circle cx="57" cy="309" r="5" fill="#2381DF"/>
<circle cx="57" cy="361" r="5" fill="#2381DF"/>
<circle cx="57" cy="205" r="5" fill="#2381DF"/>
<circle cx="57" cy="257" r="5" fill="#2381DF"/>
</svg>
